<svg width="44" height="20" viewBox="0 0 44 20" fill="none" xmlns="http://www.w3.org/2000/svg">
<path fill-rule="evenodd" clip-rule="evenodd" d="M14.5339 10.0387C13.8807 9.51569 13.7749 8.56064 14.2966 7.90718C14.8183 7.25372 15.7727 7.14721 16.4253 7.66961C17.0779 8.19202 17.1843 9.14767 16.662 9.80113C16.1396 10.4546 15.1865 10.5611 14.5339 10.0387ZM11.9307 13.2982C11.2775 12.7752 11.1717 11.8201 11.6934 11.1667C12.2151 10.5132 13.1695 10.4067 13.8221 10.9291C14.4747 11.4515 14.5811 12.4072 14.0594 13.0606C13.5376 13.7141 12.5833 13.8206 11.9307 13.2982ZM9.21753 16.6953C8.56434 16.1723 8.45856 15.2173 8.98028 14.5638C9.50199 13.9104 10.4564 13.8039 11.109 14.3269C11.7616 14.8499 11.8679 15.8049 11.3462 16.4584C10.8245 17.1118 9.87012 17.2184 9.21753 16.6959V16.6953ZM18.912 6.93597C18.3705 7.39255 17.5655 7.42068 16.9918 6.95991C16.4211 6.50332 16.2687 5.71702 16.5867 5.08989L11.6014 1.13145C11.3384 0.919615 11.2321 0.935173 11.0396 1.18411L8.77888 4.03072C8.55777 4.3 8.60856 4.42806 8.84641 4.64109C9.54459 5.25401 10.0016 6.09612 10.1355 7.01616C10.4116 8.86044 9.79721 10.3936 8.21833 11.3977C6.65378 12.3928 5.00558 12.4186 3.41952 11.3648C3.19004 11.2122 3.08486 11.2289 2.92052 11.4402L0.71713 14.2138C0.521114 14.4531 0.561751 14.577 0.785257 14.7523L3.67171 17.04C4.46295 17.6163 5.28944 18.0741 6.1494 18.4104C6.19069 18.1599 6.29473 17.9239 6.45179 17.7246C6.9741 17.0705 7.92789 16.9646 8.58048 17.487C9.05856 17.8742 9.24621 18.4983 9.09681 19.0608C9.70339 19.0985 10.3237 19.0848 10.9614 19.0094L33.4996 16.3501" fill="black"/>
<path fill-rule="evenodd" clip-rule="evenodd" d="M37.6434 9.71316C37.3972 10.0638 36.9143 10.1482 36.5635 9.90166C36.3958 9.78296 36.2818 9.60256 36.2465 9.39991C36.2112 9.19727 36.2575 8.98888 36.3753 8.82034C36.4938 8.65234 36.674 8.5382 36.8764 8.50287C37.0788 8.46755 37.2869 8.51392 37.4552 8.63184C37.8054 8.87839 37.8896 9.3619 37.6434 9.71316ZM36.4171 11.4593C36.1709 11.81 35.688 11.8943 35.3372 11.6478C34.9865 11.4013 34.9028 10.9177 35.149 10.5665C35.2675 10.3985 35.4477 10.2843 35.6501 10.249C35.8525 10.2137 36.0606 10.2601 36.2289 10.378C36.5791 10.6245 36.6633 11.108 36.4171 11.4593ZM35.1908 13.2054C34.9446 13.5561 34.4618 13.6405 34.111 13.3939C33.7602 13.1474 33.6765 12.6639 33.9227 12.3126C34.0412 12.1446 34.2214 12.0305 34.4238 11.9952C34.6262 11.9598 34.8343 12.0062 35.0026 12.1241C35.1704 12.2428 35.2844 12.4232 35.3196 12.6259C35.3549 12.8285 35.3086 13.0369 35.1908 13.2054ZM43.3542 9.95791L41.7132 8.71024C40.8765 8.1226 39.9657 7.77074 38.9964 7.66901C38.9759 7.77605 38.9331 7.87758 38.8709 7.96702C38.6247 8.31768 38.1418 8.40206 37.791 8.15551C37.6321 8.04361 37.5311 7.88264 37.488 7.70671L25.0159 9.43849L32.5614 14.4555C32.5695 14.3131 32.6169 14.1758 32.6982 14.0588C32.8167 13.8908 32.9969 13.7766 33.1993 13.7413C33.4017 13.706 33.6098 13.7524 33.7781 13.8703C34.1283 14.1168 34.2126 14.6003 33.9663 14.9516C33.8886 15.0611 33.7882 15.1413 33.6759 15.191L37.4576 17.7054C37.607 17.8215 37.6667 17.8114 37.7719 17.6695L39.0054 16.0479C39.1267 15.8953 39.0962 15.8235 38.9606 15.7068C38.5625 15.3715 38.2968 14.9052 38.2112 14.3915C38.0355 13.3622 38.3618 12.4957 39.2349 11.9153C40.0996 11.3408 41.0217 11.3067 41.9223 11.8794C42.0526 11.962 42.1118 11.9512 42.2008 11.8315L43.4002 10.2529C43.5078 10.1165 43.4827 10.0477 43.356 9.95193" fill="black"/>
</svg>
