<svg width="231" height="82" viewBox="0 0 231 82" fill="none" xmlns="http://www.w3.org/2000/svg">
<g clip-path="url(#clip0_11662_13134)">
<g clip-path="url(#clip1_11662_13134)">
<path fill-rule="evenodd" clip-rule="evenodd" d="M138.823 13.9041H140.241V17.6233L140.175 18.8572H140.241C140.475 18.3985 140.845 18.0169 141.351 17.7111C141.857 17.4061 142.411 17.2529 143.011 17.2529C144.045 17.2529 144.835 17.5731 145.38 18.2135C145.925 18.8543 146.198 19.7029 146.198 20.7603V26.5241H144.78V20.9898C144.78 20.1788 144.585 19.5796 144.196 19.1918C143.806 18.804 143.3 18.61 142.678 18.61C142.232 18.61 141.824 18.7509 141.451 19.0332C141.078 19.3151 140.784 19.6794 140.567 20.1257C140.349 20.5728 140.241 21.0368 140.241 21.5186V26.5241H138.823V13.9041ZM135.161 26.345C134.859 26.2254 134.604 26.0639 134.398 25.8605C134.17 25.6335 133.998 25.3704 133.884 25.0709C133.769 24.7722 133.712 24.4073 133.712 23.9764V18.6121H132.186V17.2302H133.712V14.6465H135.17V17.2302H137.296V18.6121H135.17V23.5997C135.17 24.1023 135.262 24.4731 135.445 24.7122C135.662 24.9753 135.976 25.107 136.388 25.107C136.719 25.107 137.04 25.0055 137.348 24.802V26.2913C137.177 26.3748 137.002 26.4348 136.825 26.4704C136.647 26.5065 136.422 26.5242 136.148 26.5242C135.793 26.5242 135.464 26.4646 135.161 26.345ZM148.803 17.6465V26.5241H147.279V17.6465H148.803ZM146.935 14.9484C146.935 15.2386 147.044 15.4878 147.261 15.6969C147.479 15.9057 147.739 16.0103 148.041 16.0103C148.355 16.0103 148.619 15.9057 148.83 15.6969C149.042 15.4878 149.147 15.2386 149.147 14.9484C149.147 14.6586 149.038 14.412 148.821 14.2085C148.603 14.0058 148.343 13.9041 148.041 13.9041C147.739 13.9041 147.479 14.0058 147.261 14.2085C147.044 14.412 146.935 14.6586 146.935 14.9484ZM149.885 17.8871H151.246V19.1574H151.313C151.548 18.7281 151.923 18.3639 152.438 18.0645C152.953 17.7659 153.502 17.6159 154.085 17.6159C155.114 17.6159 155.901 17.9183 156.445 18.5219C156.987 19.1261 157.26 19.9474 157.26 20.986V26.5241H155.832V21.2065C155.832 20.4047 155.641 19.8234 155.261 19.4619C154.88 19.1008 154.359 18.9198 153.698 18.9198C153.239 18.9198 152.828 19.0501 152.463 19.3095C152.099 19.5696 151.817 19.9106 151.615 20.3342C151.414 20.7575 151.313 21.2006 151.313 21.6635V26.5241H149.885V17.8871ZM160.166 13.9041H158.734V26.5241H160.166V23.7568L161.648 22.206L164.408 26.5241H166.109V26.4536L162.658 21.1658L166.026 17.6056V17.5351H164.207L160.166 21.8355V13.9041Z" fill="white"/>
<path fill-rule="evenodd" clip-rule="evenodd" d="M105.556 64.6031C102.368 62.2748 100.183 59.0116 99 54.8109L104.531 52.5517C105.304 55.473 106.739 57.87 108.833 59.7413C110.927 61.6138 113.384 62.5491 116.208 62.5491C119.029 62.5491 121.419 61.7849 123.377 60.2552C125.334 58.7258 126.313 56.6375 126.313 53.9894C126.313 51.707 125.482 49.8241 123.821 48.3395C122.159 46.8567 119.439 45.4752 115.661 44.1972L112.589 43.1014C109.129 41.8678 106.306 40.2486 104.121 38.2386C101.937 36.2305 100.844 33.4456 100.844 29.8841C100.844 27.5562 101.481 25.3991 102.756 23.4139C104.03 21.4276 105.805 19.8416 108.082 18.6542C110.358 17.4678 112.906 16.8734 115.729 16.8734C118.551 16.8734 121.01 17.3991 123.104 18.449C125.197 19.4996 126.87 20.7769 128.123 22.2837C129.375 23.7902 130.25 25.2738 130.752 26.7344L125.289 29.0627C124.834 27.3746 123.797 25.8442 122.182 24.4752C120.566 23.1052 118.438 22.4202 115.798 22.4202C113.294 22.4202 111.154 23.1292 109.379 24.5429C107.604 25.9588 106.716 27.7395 106.716 29.8841C106.716 31.8017 107.467 33.3665 108.97 34.5758C110.472 35.7854 112.748 36.9155 115.798 37.9654L119.007 39.0612C123.149 40.5676 126.382 42.4508 128.703 44.71C131.025 46.9706 132.186 50.0408 132.186 53.9207C132.186 57.0704 131.377 59.7184 129.761 61.8641C128.145 64.0108 126.108 65.5853 123.651 66.5894C121.192 67.5924 118.666 68.0959 116.07 68.0959C112.247 68.0959 108.741 66.9314 105.556 64.6031ZM137.739 64.3614C135.511 61.8724 134.398 58.3914 134.398 53.9189V31.7205H140.252V53.0206C140.252 56.3859 141.01 58.8525 142.525 60.4194C144.04 61.9881 146.083 62.7714 148.655 62.7714C150.629 62.7714 152.385 62.242 153.924 61.1806C155.462 60.1203 156.655 58.7379 157.506 57.031C158.354 55.3263 158.78 53.528 158.78 51.6371V31.7205H164.634V66.9893H159.055V61.8724H158.78C157.815 63.6244 156.277 65.0995 154.165 66.2975C152.053 67.4959 149.802 68.0959 147.416 68.0959C143.191 68.0959 139.965 66.8515 137.739 64.3614ZM175.17 66.6111H169.585V31.6231H175.17V66.6111ZM168.322 20.9896C168.322 22.1336 168.72 23.1162 169.519 23.9395C170.317 24.7625 171.269 25.174 172.378 25.174C173.53 25.174 174.494 24.7625 175.27 23.9395C176.045 23.1162 176.434 22.1336 176.434 20.9896C176.434 19.847 176.034 18.8745 175.237 18.0734C174.439 17.2745 173.485 16.8734 172.378 16.8734C171.269 16.8734 170.317 17.2745 169.519 18.0734C168.72 18.8745 168.322 19.847 168.322 20.9896ZM189.074 66.6703C187.861 66.215 186.844 65.5987 186.021 64.8228C185.105 63.9572 184.419 62.9535 183.962 61.8128C183.505 60.6735 183.277 59.282 183.277 57.6406V37.1881H177.171V31.9202H183.277V22.0699H189.107V31.9202H197.614V37.1881H189.107V56.2044C189.107 58.1199 189.473 59.5332 190.205 60.4453C191.073 61.4483 192.332 61.9505 193.978 61.9505C195.304 61.9505 196.585 61.5627 197.82 60.7869V66.465C197.134 66.7837 196.436 67.0119 195.727 67.1486C195.018 67.2859 194.115 67.3535 193.017 67.3535C191.599 67.3535 190.284 67.1257 189.074 66.6703ZM223.544 41.4561C224.281 42.9179 224.695 44.3786 224.788 45.8393H203.301C203.899 42.9626 205.155 40.6468 207.066 38.8877C208.978 37.1309 211.316 36.2521 214.079 36.2521C216.474 36.2521 218.466 36.7545 220.055 37.7586C221.645 38.7628 222.807 39.9961 223.544 41.4561ZM199.328 59.0907C200.824 61.8986 202.909 64.1016 205.581 65.6992C208.252 67.2963 211.269 68.096 214.631 68.096C218.317 68.096 221.46 67.2745 224.063 65.63C226.664 63.987 228.726 61.7503 230.246 58.9195L225.272 56.5223C222.829 60.7233 219.353 62.8232 214.839 62.8232C212.905 62.8232 211.05 62.3666 209.277 61.4531C207.504 60.541 206.041 59.1709 204.89 57.3442C203.738 55.5182 203.094 53.2807 202.956 50.6325H230.798C230.937 50.1308 231.006 49.5375 231.006 48.8528C231.006 45.3834 230.326 42.3016 228.968 39.6072C227.609 36.9142 225.662 34.8025 223.13 33.273C220.596 31.7435 217.602 30.9782 214.148 30.9782C210.739 30.9782 207.746 31.8237 205.167 33.5118C202.586 35.2021 200.595 37.4614 199.191 40.2922C197.784 43.1231 197.083 46.2271 197.083 49.6055C197.083 53.1221 197.831 56.2827 199.328 59.0907Z" fill="white"/>
</g>
</g>
<g clip-path="url(#clip2_11662_13134)">
<path d="M41.0017 3.11662C46.5058 3.11662 50.9859 7.21809 50.9859 12.2639V62.9028C50.9859 67.9455 46.5092 72.05 41.0017 72.05C35.4942 72.05 31.0174 67.9486 31.0174 62.9028L31.0174 12.2639C31.0174 7.22121 35.4942 3.11662 41.0017 3.11662ZM41.0017 0C33.6402 0 27.6157 5.51954 27.6157 12.2639L27.6157 62.9028C27.6157 69.6471 33.6402 75.1667 41.0017 75.1667C48.3631 75.1667 54.3877 69.6471 54.3877 62.9028V12.2639C54.3843 5.51954 48.3631 0 41.0017 0Z" fill="#544194"/>
<path d="M40.9541 3.40009C44.5362 3.40009 47.8631 5.30754 49.6354 8.37782L77.2715 56.2205C78.5982 58.5156 78.9452 61.2016 78.2546 63.7891C77.5607 66.3732 75.9142 68.5254 73.618 69.8515C72.1144 70.7185 70.3999 71.1775 68.665 71.1775C65.0829 71.1775 61.756 69.2701 59.9803 66.1998L32.3442 18.3571C29.5921 13.5936 31.2318 7.4768 35.9977 4.72613C37.5013 3.8591 39.2124 3.40009 40.9507 3.40009M40.9507 0C38.6851 0 36.3889 0.574615 34.2968 1.78165C27.9218 5.46055 25.7175 13.6854 29.3982 20.0571L57.0343 67.8998C59.5074 72.1805 64.0284 74.5776 68.665 74.5776C70.9306 74.5776 73.2268 74.003 75.3189 72.796C81.6938 69.1171 83.8982 60.8922 80.2175 54.5205L52.5814 6.67778C50.1083 2.40046 45.5873 0 40.9507 0Z" fill="#465BA8"/>
<path d="M41.0484 3.40009C42.7833 3.40009 44.4978 3.8591 46.0014 4.72613C48.2976 6.05216 49.9441 8.20442 50.6381 10.7885C51.332 13.3726 50.9816 16.0586 49.6549 18.3571L22.0189 66.1998C20.2465 69.2701 16.9162 71.1775 13.3341 71.1775C11.5992 71.1775 9.88469 70.7185 8.3811 69.8515C6.08489 68.5255 4.43843 66.3732 3.74447 63.7891C3.0505 61.2051 3.40089 58.519 4.72758 56.2205L32.3637 8.37783C34.136 5.30754 37.4664 3.40009 41.0484 3.40009ZM41.0484 0C36.4118 0 31.8908 2.40046 29.4177 6.67778L1.78164 54.5239C-1.89909 60.8956 0.305263 69.1205 6.68021 72.7994C8.7723 74.0064 11.0685 74.581 13.3341 74.581C17.9707 74.581 22.4917 72.1805 24.9648 67.9032L52.6009 20.0571C56.2816 13.6854 54.0773 5.46055 47.7023 1.78165C45.6068 0.574615 43.314 0 41.0484 0Z" fill="#E9B44C"/>
</g>
<defs>
<clipPath id="clip0_11662_13134">
<rect width="148" height="82" fill="white" transform="translate(83)"/>
</clipPath>
<clipPath id="clip1_11662_13134">
<rect width="132.006" height="54.1919" fill="white" transform="translate(99 13.9041)"/>
</clipPath>
<clipPath id="clip2_11662_13134">
<rect width="82" height="82" fill="white"/>
</clipPath>
</defs>
</svg>
